Coordinates
version=1
nRows=58
nColumns=6
inDegrees=yes

Units are S.I. units (second, meters, Newtons, ...)
If the header above contains a line with 'inDegrees', this indicates whether rotational values are in degrees (yes) or radians (no).

endheader
time	foot_tx	hip_flexion_r	knee_angle_r	ankle_angle_r	lumbar
    114.60000000	      0.23096986	     67.06208376	    -79.59924657	     -1.83567393	    -27.45616581
    114.61000000	      0.23091232	     67.06946757	    -79.55023586	     -1.86107666	    -27.65185581
    114.62000000	      0.23085330	     67.07903578	    -79.50023957	     -1.88594770	    -27.86612461
    114.63000000	      0.23079457	     67.09308980	    -79.44943855	     -1.91059685	    -28.09839176
    114.64000000	      0.23073317	     67.10907865	    -79.39736226	     -1.93500373	    -28.35315735
    114.65000000	      0.23067708	     67.13343494	    -79.34261063	     -1.96115538	    -28.62612338
    114.66000000	      0.23061886	     67.16326824	    -79.28539728	     -1.98852706	    -28.92299534
    114.67000000	      0.23056162	     67.20499087	    -79.22525933	     -2.01833161	    -29.23950645
    114.68000000	      0.23050229	     67.25975646	    -79.16235205	     -2.05064967	    -29.57686160
    114.69000000	      0.23044340	     67.33271365	    -79.09663160	     -2.08611445	    -29.93156653
    114.70000000	      0.23038081	     67.42094919	    -79.02860716	     -2.12388610	    -30.30867579
    114.71000000	      0.23031478	     67.52458733	    -78.95845853	     -2.16371110	    -30.70971709
    114.72000000	      0.23024295	     67.64139799	    -78.88659591	     -2.20489202	    -31.13884215
    114.73000000	      0.23017079	     67.77619972	    -78.81276244	     -2.24820101	    -31.59251592
    114.74000000	      0.23009590	     67.92786414	    -78.73740795	     -2.29306643	    -32.07375150
    114.75000000	      0.23001892	     68.09631033	    -78.66059564	     -2.33939836	    -32.58442907
    114.76000000	      0.22994207	     68.28427281	    -78.58257000	     -2.38739450	    -33.12341273
    114.77000000	      0.22986593	     68.49620584	    -78.50394888	     -2.43712610	    -33.68765156
    114.78000000	      0.22979062	     68.73615306	    -78.42537516	     -2.48849666	    -34.27435933
    114.79000000	      0.22971756	     69.00682582	    -78.34772886	     -2.54098536	    -34.88157494
    114.80000000	      0.22964464	     69.31019083	    -78.27208328	     -2.59330970	    -35.50729487
    114.81000000	      0.22957228	     69.64525522	    -78.19954390	     -2.64356164	    -36.15150061
    114.82000000	      0.22950298	     70.00807946	    -78.13055888	     -2.68981217	    -36.81644280
    114.83000000	      0.22943759	     70.39151066	    -78.06438306	     -2.73051685	    -37.50801256
    114.84000000	      0.22937431	     70.78480811	    -77.99877169	     -2.76471128	    -38.23716966
    114.85000000	      0.22931329	     71.19214869	    -77.93524151	     -2.79103351	    -38.99675373
    114.86000000	      0.22926490	     71.61862553	    -77.87128790	     -2.81111262	    -39.78006911
    114.87000000	      0.22921128	     72.08013330	    -77.81616004	     -2.81955358	    -40.56616684
    114.88000000	      0.22916867	     72.59012925	    -77.76873381	     -2.81836242	    -41.33722632
    114.89000000	      0.22913173	     73.15932680	    -77.73266187	     -2.80529588	    -42.07645986
    114.90000000	      0.22909379	     73.79248542	    -77.70855227	     -2.77914572	    -42.77315515
    114.91000000	      0.22906334	     74.49595157	    -77.69248135	     -2.74228215	    -43.41380236
    114.92000000	      0.22902855	     75.28144655	    -77.68430747	     -2.69403819	    -43.97864442
    114.93000000	      0.22900337	     76.14962237	    -77.68327738	     -2.63407469	    -44.45571727
    114.94000000	      0.22897021	     77.10260778	    -77.69308817	     -2.55762183	    -44.83331383
    114.95000000	      0.22894171	     78.14567593	    -77.71388055	     -2.46390258	    -45.09445496
    114.96000000	      0.22891843	     79.26234202	    -77.74471763	     -2.35013667	    -45.24902119
    114.97000000	      0.22889748	     80.45555158	    -77.78916784	     -2.21314013	    -45.28476904
    114.98000000	      0.22888380	     81.71614511	    -77.84506908	     -2.05250276	    -45.20643907
    114.99000000	      0.22887796	     83.02748637	    -77.91184369	     -1.86628886	    -45.02840286
    115.00000000	      0.22887910	     84.37840843	    -77.98514611	     -1.65478415	    -44.76104979
    115.01000000	      0.22889170	     85.75055871	    -78.06027539	     -1.41777733	    -44.42228406
    115.02000000	      0.22891888	     87.12749935	    -78.13149797	     -1.15535852	    -44.02735942
    115.03000000	      0.22896883	     88.49346543	    -78.19077622	     -0.86912984	    -43.58972840
    115.04000000	      0.22904798	     89.82673734	    -78.23359032	     -0.55945124	    -43.12966396
    115.05000000	      0.22916122	     91.10910085	    -78.25783531	     -0.22678599	    -42.66353101
    115.06000000	      0.22931446	     92.32415293	    -78.26362249	      0.12788538	    -42.20645352
    115.07000000	      0.22950208	     93.46511597	    -78.25524227	      0.50461176	    -41.76142293
    115.08000000	      0.22975055	     94.50374009	    -78.23335809	      0.89996806	    -41.36014307
    115.09000000	      0.23003057	     95.45413520	    -78.20878404	      1.31509198	    -40.97927094
    115.10000000	      0.23034264	     96.30583396	    -78.18728957	      1.74788802	    -40.62668410
    115.11000000	      0.23067563	     97.04926652	    -78.17562995	      2.19735174	    -40.30655349
    115.12000000	      0.23101510	     97.66269035	    -78.18175181	      2.66385868	    -40.03816948
    115.13000000	      0.23135755	     98.12630700	    -78.20918093	      3.14590579	    -39.83738417
    115.14000000	      0.23169581	     98.43283971	    -78.25703023	      3.63973102	    -39.70406240
    115.15000000	      0.23202521	     98.56999214	    -78.32478279	      4.14360067	    -39.64780764
    115.16000000	      0.23235445	     98.53965549	    -78.40505176	      4.65198276	    -39.66176739
    115.17000000	      0.23268135	     98.35548621	    -78.48849532	      5.16010980	    -39.72716052
